# xmcd
#
# Track frame offsets:
#	150
#	13053
#	25145
#	38629
#	51522
#	65492
#	79292
#	94879
#	107163
#	120121
#	147027
#	170446
#	186223
#	200709
#	215726
#	229563
#	239945
#	258141
#	268634
#	284668
#	295843
#	305183
#	319337
#	338648
#	351144
#
# Disc length: 4800 seconds
#
# Revision: 0
# Processed by: cddbd v1.4PL0 Copyright (c) Steve Scherf et al.
# Submitted via: audiograbber 1.82.02
#
DISCID=8512be19
DTITLE=Various Artist - Lady Sings the Blues
DYEAR=1900
DGENRE=
TTITLE0=Betty Swann-Tell It Like It Is
TTITLE1=Erma Franklin - Light My Fire
TTITLE2=Sue Raney - When Your Love Has Gone
TTITLE3=Julie London - Round Midnight
TTITLE4=Betty Layette - Let Me Down Easy
TTITLE5=Ela Fitzgerald - Night and Day
TTITLE6=Tina Turner - Night Time Is The Right Time
TTITLE7=Aretha Franklin - Today I Sing The Blues
TTITLE8=Dionna Warwick - Walk On By
TTITLE9=Sarah Vaugham - Misty
TTITLE10=Dianne Reeves - In A Sentimental Mood
TTITLE11=Dusty Springfield - The Look Of Love
TTITLE12=Lisa  Ekdahl - Daybreak
TTITLE13=Peggy Lee - Fever
TTITLE14=Etta James - I Just Want To Make Love
TTITLE15=Irma Thomas - Wish Someone Would Care
TTITLE16=Nina Simone - I Love You Porgy
TTITLE17=Kay Star - Baby Won't You Please Come Home
TTITLE18=Dianah Shore - My Funny Valentine
TTITLE19=Lena Horne - In Love In Vain
TTITLE20=Bobby Gentry - Son Of A Preacher Man
TTITLE21=Billie Holly - Travlin' Light
TTITLE22=June Christy - Something Cool
TTITLE23=Dinah Washington - Mad About The Boy
TTITLE24=Nancy Wilson - Wives and Lovers
EXTD=
EXTT0=
EXTT1=
EXTT2=
EXTT3=
EXTT4=
EXTT5=
EXTT6=
EXTT7=
EXTT8=
EXTT9=
EXTT10=
EXTT11=
EXTT12=
EXTT13=
EXTT14=
EXTT15=
EXTT16=
EXTT17=
EXTT18=
EXTT19=
EXTT20=
EXTT21=
EXTT22=
EXTT23=
EXTT24=
PLAYORDER=
